<svg xml:space="preserve" style="max-height: 500px" viewBox="1.7500000000000002 16.5 97.25 67.5" y="0px" x="0px" version="1.1" xmlns:xlink="http://www.w3.org/1999/xlink" xmlns="http://www.w3.org/2000/svg" width="97.25" height="67.5"><path fill="white" d="M94.3,39.4l-7.7-11.4C86,27,85.1,26.8,84,27l-0.8-1.7c-0.5-1.1,0-2.4,1.2-2.9l6-2.3h-7.8c-2.9,0-4.9,3-3.8,5.7l0.9,2.1  L79.1,28l-2.4-1.5c-0.8-0.5-1.6-0.7-2.5-0.7h-2.9l3.1,3l-7.1,1.2c0.1,0.4,0.2,0.9,0.4,1.3l-1,0.3c-0.2-0.5-0.3-1-0.4-1.5H44.9v0.7  h-1v-0.7h-6.6V32h-1v-1.9H10.7c-3.1,0-5.6,2.5-5.6,5.6v23.9h2.8V35.7c0-1.5,1.3-2.8,2.8-2.8v9.9l1.4,9.8L10.7,61l0.2,2.8h2v1h-1.9  l1.1,15.9h3.5V64.8h-1.8v-1h1.8l2.1-1.8l0,4.7l3.4,14h3.5l-1.8-14.1l5.8-9l-1.4-0.4l0.3-1l8.6,2.6V57h1v2l14,0.5l-2.7,21.2h3.5  L56.2,63l-1-2.1l0.9-0.4l2.8,5.8H61v1h-1.9l1.4,13.5h3.5V67.2H62v-1h2.1v-6.7c3.1-0.5,5.8-2.2,7.5-4.9l1.2-1.9h-1.1v-1h1.7l3.6-5.9  c-0.4-0.3-0.8-0.6-1.2-0.9l0.6-0.8c0.3,0.3,0.7,0.6,1.1,0.8l1.4-2.2l11.8,1.8c1.3,0.5,2.8,0,3.7-1.1C95.3,42.3,95.3,40.5,94.3,39.4z   M24.3,30.5h1v2.1h-1V30.5z M24.3,33.6h1v2.1h-1V33.6z M24.3,36.7h1v2.1h-1V36.7z M24.3,39.8h1v2.1h-1V39.8z M24.3,46h1v2.1h-1V46z   M24.3,49.1h1v2.1h-1V49.1z M24.3,52.3h1v2.1h-1V52.3z M18.7,62.5L18,61.7l1.3-1.1l0.7,0.8L18.7,62.5z M20.6,60.8L19.9,60l1.3-1.1  l0.7,0.8L20.6,60.8z M22.5,59.1l-0.7-0.8l1.3-1.1l0.7,0.8L22.5,59.1z M26.5,57l-1.2-0.3l-0.9,0.8l-0.7-0.7l0.6-0.5v-0.8h1v0.2  l1.4,0.4L26.5,57z M26.5,45.3c-0.4-0.2-0.8-0.3-1.1-0.5V45h-1v-2.1h1v0.8c0.5,0.2,1,0.4,1.5,0.6L26.5,45.3z M54.5,30.8h1v2h-1V30.8z   M54.5,33.8h1v2h-1V33.8z M54.5,36.8h1v2h-1V36.8z M54.5,39.8h1v2h-1V39.8z M54.5,42.8h1v2h-1V42.8z M54.5,45.8h1v2h-1V45.8z   M54.5,48.8h1v2h-1V48.8z M43.9,31.8h1v2h-1V31.8z M43.9,34.8h1v2h-1V34.8z M43.9,37.8h1v2h-1V37.8z M43.9,40.8h1v2h-1V40.8z   M43.9,43.8h1v2h-1V43.8z M43.9,46.8h1v2h-1V46.8z M36.3,33h1v2h-1V33z M36.3,36h1v2h-1V36z M36.3,39h1v2h-1V39z M36.3,42h1v2h-1V42  z M36.3,45h1v2h-1V45z M29.3,46.4c-0.6-0.2-1.3-0.5-1.9-0.7l0.4-0.9c0.6,0.2,1.2,0.5,1.9,0.7L29.3,46.4z M32.1,47.4  c-0.6-0.2-1.3-0.4-1.9-0.7l0.3-0.9c0.6,0.2,1.3,0.4,1.9,0.7L32.1,47.4z M35,48.3c-0.6-0.2-1.3-0.4-1.9-0.6l0.3-0.9  c0.6,0.2,1.3,0.4,1.9,0.6L35,48.3z M37.3,56h-1v-2h1V56z M37.3,53h-1v-2h1V53z M37.9,49.2c-0.2,0-0.4-0.1-0.6-0.2v1h-1v-1.3  c-0.1,0-0.2-0.1-0.3-0.1l0.3-1c0.6,0.2,1.3,0.4,1.9,0.6L37.9,49.2z M40.8,49.9c-0.7-0.1-1.3-0.3-2-0.5l0.3-1  c0.6,0.2,1.3,0.3,1.9,0.5L40.8,49.9z M43.8,50.6c-0.7-0.1-1.3-0.3-2-0.4l0.2-1c0.6,0.2,1.3,0.3,1.9,0.4L43.8,50.6z M46.7,51.1  c-0.7-0.1-1.3-0.2-2-0.4l0.2-1c0.7,0.1,1.3,0.3,2,0.4L46.7,51.1z M49.7,51.6c-0.7-0.1-1.3-0.2-2-0.3l0.2-1c0.7,0.1,1.3,0.2,2,0.3  L49.7,51.6z M52.7,52c-0.7-0.1-1.3-0.2-2-0.3l0.1-1c0.6,0.1,1.3,0.2,2,0.3L52.7,52z M54.7,60l-0.2-0.5v-1.7h1v1.5l0.1,0.3L54.7,60z   M54.5,56.8v-2h1v2H54.5z M55.7,52.3c0,0-0.1,0-0.2,0v1.5h-1v-1.6c-0.3,0-0.6,0-0.8-0.1l0.1-1c0.7,0.1,1.3,0.1,2,0.2L55.7,52.3z   M58.7,52.5c-0.7,0-1.3-0.1-2-0.1l0.1-1c0.7,0,1.3,0.1,2,0.1L58.7,52.5z M61.7,52.6c-0.7,0-1.3,0-2-0.1l0-1c0.7,0,1.3,0.1,2,0.1  L61.7,52.6z M62.7,52.7l0-1c0.5,0,1,0,1.5,0h0.5v1h-0.5C63.7,52.7,63.2,52.7,62.7,52.7z M65.1,58.5h-1v-2h1V58.5z M65.1,55.5h-1v-2  h1V55.5z M67.7,52.7h-2v-1h2V52.7z M67.2,32.5l0.9-0.3c0.2,0.6,0.5,1.2,0.7,1.8l-0.9,0.4C67.6,33.8,67.4,33.2,67.2,32.5z M69.2,34.9  c0.3,0.6,0.6,1.2,0.9,1.7l-0.9,0.5c-0.3-0.6-0.7-1.2-1-1.8L69.2,34.9z M70.7,52.7h-2v-1h2V52.7z M69.8,38l0.8-0.5  c0.4,0.6,0.7,1.1,1.1,1.6L71,39.7C70.6,39.1,70.2,38.6,69.8,38z M72.9,42c-0.5-0.5-0.9-1-1.3-1.6l0.8-0.6c0.4,0.5,0.8,1,1.3,1.5  L72.9,42z M75,44.2c-0.5-0.5-1-0.9-1.5-1.4l0.7-0.7c0.5,0.5,0.9,0.9,1.4,1.4L75,44.2z"/><text font-family="'Helvetica Neue', Helvetica, Arial-Unicode, Arial, Sans-serif" font-weight="bold" font-size="5px" fill="currentColor" y="115" x="0">Created by Laymik</text><text font-family="'Helvetica Neue', Helvetica, Arial-Unicode, Arial, Sans-serif" font-weight="bold" font-size="5px" fill="currentColor" y="120" x="0">from the Noun Project</text></svg>