<svg xml:space="preserve" viewBox="10 0 79 97.75" y="0px" x="0px" version="1.1" xmlns:xlink="http://www.w3.org/1999/xlink" xmlns="http://www.w3.org/2000/svg" style="max-height: 500px" width="79" height="97.75"><path fill="white" d="M82.329,12.362l-1.656-0.736l-1.32-3.088c-0.9-2.106-2.97-3.471-5.26-3.471h-4.164c-0.898,0-1.501,0.922-1.141,1.744  l0.573,1.327c-3.238,0.755-5.918,3.136-7.014,6.373l0.16-0.083c0.293,0.568,0.628,1.127,0.993,1.662l-0.826,0.564  c-0.24-0.352-0.462-0.716-0.675-1.084l-4.333,13.759c-1.019,3.236-3.719,5.66-7.046,6.325l-9.098,1.82l-0.48,0.716l-0.83-0.558  l0.495-0.738L20.972,14.289l-1.76,2.598c-3.901,5.759-5.986,12.554-5.986,19.51v0c0,8.513,3.034,16.748,8.559,23.226l2.645,3.102  v0.761c0,3.516,1.608,6.84,4.365,9.023l2.286,1.81c0.01-0.128,0.007-0.256,0.02-0.383l0.994,0.101  c-0.035,0.346-0.038,0.695-0.053,1.044l9.263,7.333l2.461,9.844l-2.813,2.813h16.172l-2.813-2.813h-6.331l-2.645-10.489  l17.154-9.082c7.449-3.943,13.327-10.313,16.661-18.054c3.515-8.162,3.889-17.335,1.052-25.757l-1.554-4.898  c-0.63,0.071-1.271,0.109-1.907,0.109c-0.005,0-0.009,0-0.013,0l-0.06-1c0.004,0,0.009,0,0.013,0c0.64,0,1.23-0.035,1.81-0.098  c1.998-0.608,3.464-2.439,3.464-4.636c0-0.73-0.174-1.413-0.463-2.032h1.296h2.109C84.899,14.607,83.891,13.057,82.329,12.362z   M79.699,37.38c0.651,0.03,1.306,0.038,1.965,0.023l0.023,1c-0.221,0.005-0.441,0.007-0.661,0.007c-0.46,0-0.918-0.01-1.372-0.031  L79.699,37.38z M68.379,20.735c0.551,0.337,1.126,0.644,1.71,0.91l-0.414,0.91c-0.622-0.283-1.233-0.609-1.819-0.968L68.379,20.735z   M65.222,33.959l0.521-0.854c0.56,0.342,1.136,0.668,1.711,0.968l-0.463,0.887C66.396,34.649,65.801,34.313,65.222,33.959z   M65.94,39.408l0.936,0.355l-0.711,1.87l-0.936-0.355L65.94,39.408z M65.81,42.567l-0.711,1.87l-0.936-0.355l0.711-1.87  L65.81,42.567z M64.672,46.144c0.52,0.465,0.993,0.984,1.408,1.545l-0.805,0.595c-0.374-0.506-0.801-0.975-1.27-1.394L64.672,46.144  z M66.658,48.56c0.339,0.574,0.624,1.184,0.847,1.813l0.032,0.095l-0.951,0.306c-0.225-0.635-0.481-1.186-0.789-1.703L66.658,48.56z   M67.23,38.829l-0.936-0.355l0.711-1.87l0.936,0.355L67.23,38.829z M66.05,18.999c0.481,0.432,0.992,0.837,1.519,1.205l-0.574,0.819  c-0.559-0.391-1.101-0.821-1.612-1.279L66.05,18.999z M64.068,16.874c0.398,0.512,0.828,1.003,1.278,1.458l-0.711,0.703  c-0.478-0.483-0.935-1.003-1.356-1.547L64.068,16.874z M63.306,31.445c0.521,0.395,1.062,0.776,1.606,1.134l-0.549,0.836  c-0.563-0.37-1.122-0.765-1.661-1.173L63.306,31.445z M63.856,45.487l-0.588,0.81c-0.508-0.369-1.057-0.688-1.631-0.948l0.412-0.911  C62.686,44.725,63.293,45.079,63.856,45.487z M61.047,29.549c0.48,0.446,0.976,0.875,1.485,1.289l-0.631,0.776  c-0.525-0.427-1.042-0.875-1.534-1.332L61.047,29.549z M54.355,44.113c0.18-0.064,0.359-0.122,0.54-0.175l0.281,0.96  c-0.163,0.047-0.325,0.101-0.487,0.158l-1.369,0.486L52.986,44.6L54.355,44.113z M54.539,63.595l0.076,0.997  c-0.673,0.051-1.345,0.084-2.016,0.101l-0.023-1C53.229,63.677,53.884,63.645,54.539,63.595z M52.048,44.933l0.334,0.942  l-1.877,0.667l-0.334-0.942L52.048,44.933z M46.416,46.933l0.334,0.942l-1.877,0.667l-0.334-0.942L46.416,46.933z M43.601,47.932  l0.334,0.942l-1.878,0.667l-0.334-0.942L43.601,47.932z M41.118,49.875l-1.877,0.667l-0.334-0.942l1.877-0.667L41.118,49.875z   M39.653,38.462l0.83,0.558l-1.114,1.661l-0.83-0.558L39.653,38.462z M37.982,40.954l0.83,0.558l-1.115,1.661l-0.83-0.558  L37.982,40.954z M38.303,50.875l-1.878,0.667l-0.334-0.942l1.878-0.667L38.303,50.875z M36.311,43.445l0.83,0.558l-1.114,1.661  l-0.83-0.558L36.311,43.445z M33.609,52.541l-0.334-0.942l1.877-0.667l0.334,0.942L33.609,52.541z M34.49,59.756l-0.438,0.898  c-0.604-0.294-1.2-0.604-1.789-0.93l0.482-0.875C33.321,59.167,33.902,59.469,34.49,59.756z M34.639,45.936l0.83,0.557l-1.114,1.661  l-0.83-0.557L34.639,45.936z M32.967,48.427l0.83,0.558l-1.114,1.661l-0.83-0.558L32.967,48.427z M32.337,51.932l0.334,0.942  l-1.878,0.667l-0.334-0.942L32.337,51.932z M29.521,52.932l0.334,0.942l-1.877,0.667l-0.334-0.942L29.521,52.932z M26.704,53.932  l0.334,0.942l-0.115,0.041c0.03,0.024,0.06,0.049,0.09,0.073l-0.629,0.777c-0.263-0.212-0.522-0.428-0.779-0.648l-0.658-0.562  L26.704,53.932z M25.067,62.07l-0.84-0.543l1.086-1.679l0.84,0.543L25.067,62.07z M26.697,59.551l-0.84-0.543l1.086-1.679  l0.84,0.543L26.697,59.551z M28.836,57.603c-0.552-0.382-1.095-0.778-1.629-1.188l0.609-0.793c0.521,0.401,1.05,0.787,1.588,1.159  L28.836,57.603z M29.672,58.165l0.549-0.836c0.549,0.36,1.105,0.705,1.67,1.035l-0.504,0.863  C30.807,58.889,30.234,58.535,29.672,58.165z M32.22,73.07l-0.988-0.155c0.105-0.672,0.249-1.348,0.427-2.007l0.966,0.259  C32.456,71.792,32.319,72.432,32.22,73.07z M32.899,70.233l-0.951-0.31c0.21-0.644,0.457-1.288,0.734-1.914l0.914,0.405  C33.333,69.009,33.099,69.621,32.899,70.233z M34.016,67.535l-0.893-0.451c0.307-0.606,0.648-1.205,1.018-1.78l0.842,0.54  C34.632,66.39,34.307,66.959,34.016,67.535z M35.529,65.036l-0.814-0.58c0.396-0.557,0.823-1.098,1.271-1.608l0.752,0.658  C36.313,63.991,35.906,64.506,35.529,65.036z M36.818,61.876c-0.624-0.248-1.242-0.512-1.854-0.791l0.416-0.91  c0.597,0.272,1.199,0.53,1.808,0.772L36.818,61.876z M39.671,62.887c-0.643-0.201-1.279-0.417-1.91-0.649l0.346-0.938  c0.615,0.227,1.236,0.438,1.861,0.633L39.671,62.887z M42.591,63.678c-0.656-0.151-1.308-0.319-1.954-0.504l0.275-0.961  c0.629,0.18,1.265,0.343,1.903,0.491L42.591,63.678z M45.561,64.247c-0.666-0.101-1.328-0.219-1.986-0.354l0.201-0.979  c0.641,0.131,1.287,0.247,1.936,0.346L45.561,64.247z M48.566,64.59c-0.671-0.051-1.341-0.119-2.007-0.204l0.127-0.992  c0.648,0.083,1.301,0.149,1.956,0.199L48.566,64.59z M47.688,47.542l-0.334-0.942l1.877-0.667l0.334,0.942L47.688,47.542z   M49.626,63.655c0.652,0.033,1.309,0.05,1.965,0.05v1c-0.674,0-1.346-0.017-2.016-0.051L49.626,63.655z M51.403,66.114l0.824-0.566  c0.387,0.562,0.747,1.15,1.072,1.749l-0.879,0.478C52.112,67.206,51.771,66.648,51.403,66.114z M52.863,68.641l0.902-0.43  c0.294,0.617,0.557,1.256,0.781,1.899l-0.943,0.33C53.391,69.831,53.142,69.225,52.863,68.641z M53.898,71.366l0.961-0.277  c0.19,0.663,0.345,1.336,0.458,2.004l-0.986,0.167C54.225,72.629,54.079,71.992,53.898,71.366z M54.573,76.162  c0.001-0.672-0.034-1.309-0.105-1.94l0.994-0.111c0.075,0.669,0.112,1.343,0.111,2.005L54.573,76.162z M57.396,64.283  c-0.593,0.086-1.185,0.16-1.778,0.22l-0.1-0.995c0.578-0.058,1.156-0.129,1.733-0.214l0.221-0.032l0.145,0.989L57.396,64.283z   M57.974,44.519l-0.172-0.002c-0.571,0-1.146,0.053-1.706,0.159l-0.186-0.982c0.623-0.117,1.259-0.176,1.892-0.176l0.195,0.002  L57.974,44.519z M58.988,27.439c0.429,0.486,0.883,0.967,1.35,1.43l-0.705,0.71c-0.481-0.479-0.951-0.976-1.395-1.479L58.988,27.439  z M59.293,64.006l-0.69,0.101l-0.145-0.989l0.689-0.101c0.407-0.06,0.812-0.146,1.202-0.256l0.271,0.963  C60.189,63.844,59.742,63.939,59.293,64.006z M60.759,45.002c-0.598-0.201-1.217-0.341-1.841-0.417l0.121-0.993  c0.691,0.084,1.377,0.24,2.038,0.462L60.759,45.002z M61.613,63.388l-0.369-0.93c0.587-0.233,1.149-0.526,1.673-0.871l0.551,0.835  C62.887,62.805,62.263,63.13,61.613,63.388z M64.31,61.803l-0.633-0.774c0.486-0.398,0.935-0.847,1.332-1.336l0.775,0.631  C65.345,60.865,64.849,61.362,64.31,61.803z M66.403,59.48l-0.836-0.549c0.346-0.526,0.64-1.089,0.874-1.674l0.928,0.371  C67.111,58.275,66.786,58.898,66.403,59.48z M67.708,56.639l-0.961-0.275c0.173-0.604,0.285-1.229,0.331-1.857l0.998,0.074  C68.023,55.276,67.9,55.969,67.708,56.639z M67.103,53.563c-0.02-0.63-0.104-1.26-0.248-1.872l0.973-0.23  c0.161,0.677,0.253,1.374,0.275,2.071L67.103,53.563z M69.761,36.236c-0.628-0.252-1.254-0.528-1.861-0.821l0.434-0.9  c0.587,0.283,1.192,0.55,1.799,0.792L69.761,36.236z M70.984,22.022c0.6,0.231,1.222,0.427,1.848,0.584l-0.242,0.97  c-0.666-0.167-1.327-0.375-1.965-0.621L70.984,22.022z M72.644,37.227c-0.646-0.186-1.297-0.398-1.934-0.629l0.342-0.939  c0.615,0.224,1.244,0.428,1.869,0.608L72.644,37.227z M73.78,22.812c0.631,0.118,1.277,0.199,1.922,0.239l-0.063,0.998  c-0.686-0.043-1.373-0.129-2.043-0.254L73.78,22.812z M75.614,37.923c-0.661-0.12-1.33-0.265-1.986-0.431l0.244-0.97  c0.636,0.16,1.282,0.3,1.922,0.417L75.614,37.923z M76.765,37.099c0.646,0.095,1.304,0.169,1.952,0.221l-0.078,0.997  c-0.672-0.053-1.352-0.13-2.021-0.229L76.765,37.099z M75.768,14.317c-0.68,0-1.23-0.551-1.23-1.23s0.551-1.23,1.23-1.23  c0.68,0,1.23,0.551,1.23,1.23S76.447,14.317,75.768,14.317z"/><text font-family="'Helvetica Neue', Helvetica, Arial-Unicode, Arial, Sans-serif" font-weight="bold" font-size="5px" fill="currentColor" y="115" x="0">Created by Laymik</text><text font-family="'Helvetica Neue', Helvetica, Arial-Unicode, Arial, Sans-serif" font-weight="bold" font-size="5px" fill="currentColor" y="120" x="0">from the Noun Project</text></svg>