<svg viewBox="-5 18.89 122.70270270270271 65.61" version="1.1" xmlns="http://www.w3.org/2000/svg" style="max-height: 500px" width="122.70270270270271" height="65.61">
 <path fill-rule="evenodd" d="m38.617 27.27c2.0977-2.6133 4.75-4.9375 7.7617-5.1406 8.0703-0.53516 15.141 6.2344 16.488 8.1914 0.68359 0.99609 0.88281 1.9531 0.76562 2.8438-7.9219-3.3438-16.684-5.8984-24.891-5.8984h-0.12891z"/>
 <path fill-rule="evenodd" d="m42.07 75.504c4.1172-0.32422 8.3203-1.2109 12.449-2.4531 1.8398 2.7812 2.0781 5.0195-3.8203 4.8008-3.832-0.14062-6.6133-1.082-8.6289-2.3477z"/>
 <path fill-rule="evenodd" d="m78.703 57.531c-9.7227 5.9727-25.699 14.203-39.957 14.203-22.387 0-32.109-17.105-32.109-20.281 0-3.1719 9.7227-20.281 32.109-20.281 14.258 0 30.234 8.2266 39.957 14.203 2.2656-4.4883 6.4375-10.34 13.621-13.496 0.23828-0.10156 0.51172-0.035156 0.67969 0.16016 0.16406 0.19922 0.18359 0.48047 0.039063 0.69531-4.2695 7.7812-4.1836 28.879 0.21094 37.551 0.125 0.21484 0.097656 0.48828-0.070312 0.67578-0.16406 0.1875-0.42969 0.24609-0.66016 0.14844-7.3086-3.1328-11.535-9.0547-13.82-13.582zm-60.547-12.324c-1.0781 0-1.9531 0.875-1.9531 1.9531s0.875 1.9531 1.9531 1.9531 1.9531-0.875 1.9531-1.9531-0.875-1.9531-1.9531-1.9531zm7.3242-3.9258c2.2812 6.7812 2.3008 13.562 0 20.344-0.34766 1.0195 0.20312 2.1289 1.2227 2.4766 1.0195 0.34766 2.1289-0.20312 2.4766-1.2227 2.582-7.6133 2.5625-15.23 0-22.844-0.34375-1.0195-1.4531-1.5703-2.4727-1.2266s-1.5703 1.4531-1.2266 2.4727z"/>
<text fill="#000000" font-family="Arbeit Regular, Helvetica, Arial-Unicode, Arial, Sans-serif" font-weight="bold" font-size="5.0" y="117.5" x="0.0">by Muhammad Nur Auliady Pamungkas</text><text fill="#000000" font-family="Arbeit Regular, Helvetica, Arial-Unicode, Arial, Sans-serif" font-weight="bold" font-size="5.0" y="122.5" x="0.0">from Noun Project</text></svg>