<svg viewBox="-5 17 150 73.44000000000001" version="1.1" xmlns="http://www.w3.org/2000/svg" style="max-height: 500px" width="150" height="73.44000000000001">
 <path fill="white" d="m72.473 36.422c0.44531 0.078125 0.89453 0.16016 1.3242 0.25391-0.39844-0.25391-0.79688-0.49609-1.2148-0.73438-3.6562-2.125-6.6914-5.5547-10.793-6.8164-1.5312-0.26953-2.8906 0.28906-4.1211 1.1016 2.7773 1.1172 5.4141 2.5391 7.7422 4.3438-2.875-1.1992-5.7969-2.3945-8.6875-3.6406-0.62109 0.48047-1.1992 1.0078-1.7734 1.4844-0.28906 0.27344-0.58984 0.54297-0.89453 0.79688 1.5156 0.62109 2.9844 1.3398 4.3906 2.1562-1.7422-0.39844-3.4648-0.91016-5.1719-1.4688-0.87891 0.73437-1.7891 1.4219-2.7305 2.0742 1.0078 0.49609 1.9961 1.0547 2.9062 1.6914-1.2305-0.32031-2.457-0.70312-3.6562-1.1836-1.293 0.86328-2.6523 1.6445-4.0234 2.3789 0.65625 0.38281 1.2773 0.83203 1.8516 1.293-0.84766-0.27344-1.6758-0.58984-2.4922-0.95703-1.375 0.70313-2.7617 1.3555-4.1836 1.9492 0.70313 0.38281 1.3906 0.79688 2.0273 1.2773-0.95703-0.23828-1.8672-0.57422-2.7773-0.95703-1.5312 0.6875-3.1289 1.2148-4.7422 1.707 0.62109 0.35156 1.2148 0.75 1.7227 1.1992-0.84766-0.28906-1.6914-0.58984-2.5078-0.94141-1.8984 0.57422-3.7852 1.1484-5.5898 1.9492-0.98828 0.44531-1.4375 1.1641-1.6914 2.0117 3.5117-0.51172 6.9453-1.582 10.586-2.9062 11.098-3.8945 22.355-10.012 34.488-8.0625z"/>
 <path fill="white" d="m65.957 66.57c-1.5-0.015624-3-0.11328-4.5039-0.25391-0.71875 0.42969-1.375 1.0547-2.0586 1.4844-0.67188 0.57422-1.707 0.83203-2.1562 1.5977 0.25391 0.17578 0.52734 0.32031 0.8125 0.46484 1.4688-0.89453 2.9688-1.7734 4.5664-2.3945-1.1016 0.95703-2.2852 1.9336-3.543 2.7617 0.67188 0.17578 1.375 0.27344 2.043 0.36719 1.3398-1.0234 2.7148-2.0117 4.1992-2.7461-0.95703 1.0234-1.9805 2.0273-3.0977 2.9062 0.11328 0.015626 0.22266 0.03125 0.33594 0.0625 0.65625 0.078126 1.3242 0.11328 1.9805 0.12891 1.1016-1.0703 2.2031-2.1406 3.4648-3-0.70312 1.0391-1.4844 2.0742-2.3789 2.9844 0.83203-0.03125 1.6445-0.11328 2.4609-0.30469 0.70312-1.0078 1.4219-1.9961 2.2852-2.8438-0.36719 0.87891-0.8125 1.7578-1.3242 2.6016 0.73438-0.23828 1.4531-0.52734 2.1406-0.89453 1.7734-0.97266 3.2422-2.4609 4.8867-3.6406-3.1602 0.52734-6.4023 0.71875-9.582 0.71875z"/>
 <path fill="white" d="m29.695 57.578c1.3086 0.58984 2.4922 1.4688 3.418 2.4922 0.20703 0.22266 0.41406 0.41406 0.60547 0.64063 0.92578-0.32031 1.8516-0.58984 2.7773-0.78125-0.71875 0.48047-1.4844 0.89453-2.2656 1.2773 0.83203 0.78125 1.6914 1.5 2.6328 2.1406 0.86328-0.52734 1.7227-1.0547 2.6172-1.5469-0.58984 0.70312-1.2773 1.375-2.0273 1.9492 0.98828 0.64062 2.043 1.1641 3.1445 1.582 0.16016 0.0625 0.30469 0.11328 0.46484 0.17578 0.86328-0.71875 1.7227-1.4219 2.6523-2.0273-0.54297 0.78125-1.1797 1.5664-1.8984 2.2852 1.2148 0.39844 2.4766 0.70312 3.7383 0.92578 0.84766-0.84766 1.707-1.6602 2.6328-2.3945-0.52734 0.87891-1.1172 1.7227-1.7734 2.5234 1.2461 0.17578 2.4922 0.26953 3.7344 0.25391 0.62109-0.65625 1.2305-1.3086 1.8516-1.9492-0.26953 0.65625-0.62109 1.293-1.0234 1.8984 1.8984-0.25391 3.6719-1.0078 5.5391-1.4062-4.8398-0.87891-9.582-2.332-14.164-4.1055-4.7422-1.9336-8.543-3.543-12.664-3.9297z"/>
 <path fill="white" d="m67.84 60.199c-0.14453 0-0.26953 0-0.41406-0.015625h-0.20703c-1.8828 0-2.9531-0.83203-3.543-2.1094-0.015625-0.015625-0.015625-0.03125-0.03125-0.0625-0.03125-0.0625-0.0625-0.12891-0.078125-0.19141-0.03125-0.078124-0.0625-0.16016-0.097656-0.22266-0.015625-0.0625-0.046875-0.14453-0.0625-0.20703-0.015625-0.03125-0.015625-0.078125-0.03125-0.11328-0.16016-0.60547-0.26953-1.2773-0.32031-1.9805 0-0.097656-0.015626-0.20703-0.015626-0.30469 0-0.078126-0.015624-0.16016-0.015624-0.22266s-0.015626-0.12891-0.015626-0.17578v-0.35156c0-0.55859 0.0625-1.1328 0.19141-1.6914 0-0.015625 0-0.03125 0.015625-0.03125 0.015625-0.097656 0.046875-0.17578 0.078125-0.26953 0.015625-0.0625 0.03125-0.11328 0.03125-0.17578 0.42969-1.1797 1.2773-2.0586 2.8281-1.8047 1.4844 0.28906 2.875 0.94141 4.3594 1.2305 1.4844 0.35156 3.0195 0.57422 4.5664 0.71875 0.097656-4.4531 2.0898-8.7656 5.2539-11.945 0.015625-0.015626 0.046875-0.046876 0.0625-0.0625-11.609-5.668-21.539-2.6992-33.801 2.1406-3.6406 1.4844-7.3281 2.8906-11.082 4.0859-2.7148 0.89453-5.4922 1.707-8.3359 2.1094-0.14453 0.03125-0.27344 0.046875-0.41406 0.0625v-0.015625c-1.0859 0.12891-2.1562 0.20703-3.2422 0.19141-6.3711-0.03125-12.375-2.3945-18.523-3.7344-1.0703-0.20703-1.6602-0.11328-1.8672 0.20703 1.0391 0.32031 2.0898 0.58984 3.1289 0.86328 3.2266 0.86328 6.5 1.8984 9.5625 3.1445-3.4805-0.44531-6.8984-1.2461-10.266-2.25-0.78125-0.19141-1.5664-0.44531-2.332-0.71875 0.16016 0.33594 0.41406 0.71875 0.75 1.1328 0.83203 0.95703 1.8672 1.6758 2.875 2.4258 1.1172 0.16016 2.2344 0.30469 3.3359 0.49609 2.0586 0.35156 4.1211 0.79688 6.1641 1.293h-0.52734c-0.48047 0-0.97266-0.015625-1.4531-0.03125-1.8203-0.11328-3.8633-0.22266-5.9062-0.42969 0.30469 0.27344 0.57422 0.55859 0.84766 0.87891 0.49609 0.58984 0.79688 1.2148 0.97266 1.8672 2.043-0.097657 4.0703-0.12891 6.082-0.03125-1.9492 0.41406-3.9297 0.75-5.9258 0.98828 0.0625 0.79688-0.03125 1.6133-0.23828 2.4102 1.9492-0.60547 3.9102-1.1328 5.9062-1.4688-2.043 0.97266-4.1367 1.8984-6.293 2.6172-0.36719 0.98828-0.86328 1.918-1.375 2.7617 1.9805-1.1016 4.0391-2.0742 6.1641-2.8906-2.2344 1.707-4.6641 3.2266-7.1836 4.5664-0.57422 0.98828-1.0547 2.0742-0.28906 1.9336 1.375-0.35156 2.5391-1.2461 3.7383-1.9961 2.4414-1.6445 4.9336-3.2578 7.6484-4.4375 11.098-4.3906 16.895-0.54297 27.016 3.1953 11.848 4.168 21.461 4.8398 33.211 2.793-1.4219-2.1875-2.4258-4.6953-3.0508-7.168-2.2852 1.7578-4.9023 3-7.8555 3z"/>
 <path fill="white" d="m96.23 50.473c-0.67188 0.67188-1.5977 1.1641-2.3789 1.6602 0.015626 0.015626-0.14453 0.0625-0.046874-0.015624 0.64062-0.60547 1.375-1.2148 1.8984-1.9336 0.097656-0.12891 0.19141-0.25391 0.26953-0.39844 0.078125-0.14453 0.16016-0.25391 0.20703-0.39844 0.015624-0.046875 0.015624-0.078125 0.015624-0.11328 0.015626-0.078126 0-0.14453-0.015624-0.22266-0.078126-0.32031-0.41406-0.60547-0.60547-0.79688-1.0703-0.92578-2.2656-1.6602-3.5273-2.3008-2.7305-1.2773-5.5391-2.3477-8.1758-3.832-0.83203-0.51172-1.6602-0.98828-2.4766-1.4219-0.12891 0.12891-0.25391 0.23828-0.36719 0.36719-3.2266 3.1953-4.918 7.4258-4.9023 11.75v0.11328c0.015625 1.0859 0.12891 2.1719 0.36719 3.2578 0.015624 0.11328 0.03125 0.20703 0.046874 0.32031 0.19141 0.76563 0.42969 1.5469 0.71875 2.3008 0.64063 1.8672 1.5156 3.6094 2.5547 5.2852 5.4766-1.7891 10.938-3.9102 14.992-8.0781 1.6758-1.6758 2.8594-4.582 1.4219-5.5391zm-6.707-1.3555c-0.03125 0.11328-0.0625 0.22266-0.097657 0.33594-0.046875 0.097656-0.097656 0.20703-0.16016 0.33594-0.046875 0.078126-0.097656 0.17578-0.14453 0.25391-0.078125 0.097656-0.14453 0.17578-0.22266 0.26953-0.078126 0.078125-0.16016 0.16016-0.25391 0.23828-0.0625 0.046875-0.14453 0.11328-0.22266 0.16016-0.097656 0.0625-0.20703 0.12891-0.32031 0.17578-0.097656 0.046875-0.19141 0.078125-0.28906 0.11328-0.078125 0.03125-0.16016 0.046875-0.25391 0.0625-0.12891 0.015625-0.23828 0.03125-0.38281 0.046875-0.078125 0-0.17578 0-0.26953-0.015625-0.0625 0-0.17578-0.015625-0.30469-0.03125-0.097656-0.015625-0.20703-0.046875-0.30469-0.078125-0.11328-0.046875-0.20703-0.097656-0.32031-0.14453-0.078124-0.046875-0.16016-0.097656-0.25391-0.14453-0.097656-0.078124-0.17578-0.14453-0.25391-0.22266-0.046875-0.03125-0.14453-0.12891-0.22266-0.23828-0.0625-0.0625-0.11328-0.14453-0.16016-0.20703-0.046876-0.078125-0.097657-0.16016-0.12891-0.23828-0.046875-0.097656-0.078125-0.17578-0.11328-0.26953-0.03125-0.097656-0.046875-0.17578-0.0625-0.26953-0.015625-0.097656-0.03125-0.19141-0.03125-0.28906-0.015625-0.097657-0.015625-0.20703 0-0.30469 0-0.12891 0.015625-0.23828 0.046875-0.35156 0.015625-0.097657 0.046875-0.19141 0.078125-0.28906 0.03125-0.11328 0.078125-0.20703 0.12891-0.30469 0.046875-0.078126 0.097656-0.17578 0.14453-0.25391 0.078124-0.097656 0.14453-0.17578 0.22266-0.27344 0.078125-0.078125 0.16016-0.16016 0.23828-0.22266s0.16016-0.12891 0.23828-0.17578l0.23828-0.14453c0.11328-0.03125 0.20703-0.078125 0.30469-0.11328 0.11328-0.046875 0.23828-0.0625 0.36719-0.097656 0.0625 0 0.16016-0.015626 0.26953-0.03125h0.12891c0.0625 0 0.14453 0 0.23828 0.015624 0.097657 0 0.20703 0.015626 0.32031 0.046876 0.11328 0.015624 0.22266 0.046874 0.32031 0.078124 0.097656 0.046876 0.20703 0.097657 0.30469 0.14453h0.015625c0.015625 0.015625 0.03125 0.015625 0.046875 0.03125-0.36719-0.03125-0.75 0.078125-1.0391 0.35156-0.52734 0.49609-0.63672 1.3555-0.19141 1.9336 0.27344 0.35156 0.71875 0.57422 1.1641 0.57422 0.16016 0 0.33594-0.03125 0.49609-0.11328 0.32031-0.12891 0.58984-0.36719 0.73438-0.6875-0.015625 0.097656-0.03125 0.22266-0.046875 0.33594z"/>
 <path fill="white" d="m64.902 58.172c1.6602 2.0117 6.3555 0.57422 8.2695-0.51172 0.79688-0.46484 1.5469-0.95703 2.3008-1.4688-0.097656-0.44531-0.19141-0.89453-0.25391-1.3398-0.097656-0.62109-0.14453-1.2305-0.16016-1.8516-0.17578 0-0.33594 0.015625-0.51172 0.015625-2.125 0-4.2461-0.35156-6.2578-1.0391-1.0703-0.25391-2.2188-1.0078-3.3047-0.51172-0.22266 0.17578-0.38281 0.39844-0.51172 0.64062 1.5664 0.67188 3.1602 1.293 4.7734 1.8359h-0.12891c-1.0234 0-2.1094-0.19141-3.1133-0.39844-0.64062-0.14453-1.2617-0.33594-1.8516-0.57422-0.11328 0.57422-0.12891 1.1797-0.078125 1.8047 1.5664 0.28906 3.1289 0.58984 4.6953 0.91016-0.58984 0.11328-1.2461 0.16016-1.8828 0.16016-0.46484 0-0.92578-0.015625-1.375-0.0625-0.44531-0.046875-0.89453-0.12891-1.3555-0.22266 0.0625 0.42969 0.12891 0.84766 0.19141 1.2148 0.015625 0.20703 0.0625 0.39844 0.12891 0.57422 1.582 0.0625 3.1953 0.11328 4.7266 0.32031-1.3242 0.28906-2.6992 0.51172-4.0703 0.51172h-0.22266z"/>
<text fill="#000000" font-family="Arbeit Regular, Helvetica, Arial-Unicode, Arial, Sans-serif" font-weight="bold" font-size="5.0" y="117.5" x="0.0">Created by farra nugraha</text><text fill="#000000" font-family="Arbeit Regular, Helvetica, Arial-Unicode, Arial, Sans-serif" font-weight="bold" font-size="5.0" y="122.5" x="0.0">from Noun Project</text></svg>