<svg xml:space="preserve" viewBox="2.75 4.5 97.25 95" y="0px" x="0px" version="1.1" xmlns:xlink="http://www.w3.org/1999/xlink" xmlns="http://www.w3.org/2000/svg" style="max-height: 500px" width="97.25" height="95"><path fill="white" d="M96.076,27.826l-6.475-9.6c-0.864-1.279-2.056-2.299-3.448-2.956l-1.55-0.728c-1.726-5.519-6.886-9.484-12.922-9.484  c-7.467,0-13.541,6.075-13.541,13.541c0,3.403,1.354,6.849,3.477,9.161c0.393,0.422,0.797,0.84,1.216,1.24l-0.69,0.724  c-0.405-0.386-0.793-0.792-1.175-1.198l-4.364,4.655H45.5v1.105h-1V33.18H19.827c-3.28,0-6.44,1.223-8.869,3.431  c-2.746,2.496-4.31,6.039-4.31,9.751v2.299c0,1.582,1.28,2.865,2.865,2.865v11.225l1.435,0.444l-0.296,0.955l-1.727-0.535  l-2.284,3.289l1.263,9.524h1.426v1H8.036l2.335,17.612h4.295V77.429h-1.336v-1h1.839l7.26-5.74l0.622,0.783l-1.51,1.199l3.316,22.37  h4.297l-0.015-18.595l12.094-9.061v-0.448l3.269-0.012v-1.639h1v1.639l11.313,0.012v1h-0.705l3.997,8.62h1.199v1h-1.052  l1.258,17.484h4.296l0.937-17.484h-1.439v-1h1.542l3.81-8.62h-0.843v-1h1.285l0.005-0.011c5.585-2.298,8.37-6.152,9.632-9.909H80.5  v-1h0.537c0.149-0.554,0.268-1.103,0.359-1.64l2.117-16.24c-0.133,0.002-0.267,0.008-0.399,0.008c-0.262,0-0.523-0.003-0.784-0.01  l0.024-1c0.427,0.011,0.859-0.002,1.29-0.01l0.331-2.539h6.855c1.026,0,2.021-0.341,2.833-0.974l1.698-1.322  C96.736,31.222,97.049,29.271,96.076,27.826z M12.329,77.429h-2v-1h2V77.429z M13.518,65.037l-1.911-0.591l0.296-0.955l1.911,0.591  L13.518,65.037z M16.384,65.923l-1.911-0.591l0.296-0.955l1.911,0.591L16.384,65.923z M19.25,66.81l-1.911-0.591l0.296-0.955  l1.911,0.591L19.25,66.81z M22.116,67.696l-1.911-0.591l0.296-0.955l1.911,0.591L22.116,67.696z M26.246,34.015h1v2h-1V34.015z   M26.246,37.015h1v2h-1V37.015z M26.246,40.015h1v2h-1V40.015z M26.246,43.015h1v2h-1V43.015z M26.246,46.015h1v2h-1V46.015z   M26.246,49.015h1v2h-1V49.015z M26.246,52.015h1v2h-1V52.015z M26.246,58.015h1v2h-1V58.015z M26.246,61.015h1v2h-1V61.015z   M26.246,64.015h1v2h-1V64.015z M23.231,66.937h2v1h-2V66.937z M23.833,70.85l-0.622-0.783l1.566-1.244l0.622,0.783L23.833,70.85z   M28.231,67.937h-0.718l-1.332,1.047l-0.622-0.783l0.671-0.533v-0.731h2V67.937z M28.5,57.018l-2.254-0.002v-2h1v1.002H28.5V57.018z   M31.231,67.937h-2v-1h2V67.937z M31.5,57.018h-2v-1h2V57.018z M34.231,67.937h-2v-1h2V67.937z M34.5,57.018h-2v-1h1V54.87h1V57.018  z M34.5,53.87h-1v-2h1V53.87z M34.5,50.87h-1v-2h1V50.87z M34.5,47.87h-1v-2h1V47.87z M34.5,44.87h-1v-2h1V44.87z M34.5,41.87h-1v-2  h1V41.87z M34.5,38.87h-1v-2h1V38.87z M34.5,35.87h-1v-2h1V35.87z M37.231,67.937h-2v-1h2V67.937z M37.5,57.018h-2v-1h2V57.018z   M40.231,67.937h-2v-1h2V67.937z M40.5,57.018h-2v-1h2V57.018z M43.5,57.018h-2v-1h2V57.018z M62.237,53.599  c0.277,0.448,0.567,0.898,0.871,1.352l-0.832,0.556c-0.309-0.463-0.605-0.923-0.888-1.38L62.237,53.599z M64.451,31.715  c-0.532-0.415-1.057-0.853-1.562-1.302l0.666-0.746c0.489,0.437,0.993,0.856,1.51,1.259L64.451,31.715z M64.5,56.018v1h-2v-1H64.5z   M61.5,56.018v1h-2v-1H61.5z M61.726,52.754l-0.862,0.507c-0.35-0.594-0.678-1.183-0.986-1.766l0.885-0.467  C61.063,51.598,61.384,52.173,61.726,52.754z M60.312,50.149l-0.896,0.445c-0.308-0.619-0.593-1.23-0.856-1.834l0.916-0.4  C59.733,48.95,60.012,49.546,60.312,50.149z M59.092,47.45l-0.926,0.377c-0.261-0.642-0.499-1.274-0.714-1.896l0.945-0.327  C58.606,46.209,58.837,46.825,59.092,47.45z M58.087,44.668l-0.954,0.301c-0.209-0.663-0.394-1.313-0.557-1.949l0.969-0.248  C57.703,43.39,57.883,44.022,58.087,44.668z M44.5,35.286h1v2h-1V35.286z M44.5,38.286h1v2h-1V38.286z M44.5,41.286h1v2h-1V41.286z   M44.5,44.286h1v2h-1V44.286z M44.5,47.286h1v2h-1V47.286z M44.5,50.286h1v2h-1V50.286z M44.5,53.286h1v2h-1V53.286z M45.5,64.286  h-1v-2h1V64.286z M45.5,61.286h-1v-2h1V61.286z M46.5,57.018h-1v1.268h-1v-2.268h2V57.018z M49.5,57.018h-2v-1h2V57.018z   M52.5,57.018h-2v-1h2V57.018z M55.5,57.018h-2v-1h2V57.018z M55.512,34.768c0-0.273,0.003-0.539,0.01-0.798l1,0.027  c-0.007,0.25-0.01,0.507-0.01,0.771c0,0.385,0.008,0.783,0.024,1.195l-0.999,0.04C55.52,35.578,55.512,35.166,55.512,34.768z   M55.593,37.018l0.997-0.071c0.045,0.627,0.111,1.281,0.201,1.959L55.8,39.037C55.707,38.338,55.639,37.664,55.593,37.018z   M55.95,40.042l0.986-0.162c0.103,0.626,0.228,1.271,0.377,1.933l-0.976,0.221C56.185,41.352,56.056,40.687,55.95,40.042z   M56.5,57.018v-1h2v1H56.5z M59.813,67.937h-2v-1h2V67.937z M60.813,67.937v-1h2v1H60.813z M64.304,77.557h-2v-1h2V77.557z   M65.813,67.937h-2v-1h2V67.937z M66.945,33.466c-0.573-0.361-1.139-0.745-1.683-1.14l0.588-0.809  c0.53,0.386,1.073,0.753,1.628,1.103L66.945,33.466z M67.5,56.018v1h-2v-1H67.5z M68.813,67.937h-2v-1h2V67.937z M70.5,57.018h-2v-1  h2V57.018z M67.814,33.994l0.504-0.863c0.566,0.33,1.143,0.643,1.73,0.936l-0.446,0.895C69,34.661,68.399,34.336,67.814,33.994z   M70.52,35.399l0.416-0.909c0.595,0.272,1.2,0.525,1.814,0.758l-0.354,0.935C71.767,35.944,71.136,35.681,70.52,35.399z   M73.5,57.018h-2v-1h2V57.018z M73.353,36.527l0.323-0.946c0.614,0.209,1.247,0.402,1.881,0.572l-0.259,0.966  C74.643,36.943,73.988,36.744,73.353,36.527z M76.5,57.018h-2v-1h2V57.018z M76.286,37.364l0.227-0.974  c0.634,0.147,1.283,0.275,1.929,0.379l-0.16,0.987C77.614,37.649,76.943,37.517,76.286,37.364z M79.5,57.018h-2v-1h2V57.018z   M81.314,38.092c-0.675-0.04-1.356-0.104-2.025-0.188l0.127-0.992c0.646,0.083,1.304,0.144,1.957,0.183L81.314,38.092z   M77.399,16.827c-1.209-1.765-3.224-2.837-5.389-2.837c-3.886,0-6.99,3.41-6.48,7.389c0.403,3.143,3.101,5.576,6.268,5.674  c0.022,0.001,0.044,0.002,0.066,0.002c1.326,0.028,2.568,0.653,3.31,1.752l0.373,0.552c-1.234,0.446-2.528,0.671-3.867,0.671  c-6.564,0-11.854-5.561-11.405-12.219c0.368-5.464,4.665-9.969,10.107-10.572c6.239-0.691,11.677,3.676,12.592,9.588H77.399z   M71.353,17.386l-3.754,4.009c-0.427-2.719,1.29-4.483,3.002-5.06L71.353,17.386z M84.338,23.615c-1.023,0-1.895-0.731-2.074-1.733  l-0.151-0.826h2.855c0.494,0,0.956,0.244,1.234,0.653l1.299,1.907C87.501,23.616,84.777,23.615,84.338,23.615z"/><text font-family="'Helvetica Neue', Helvetica, Arial-Unicode, Arial, Sans-serif" font-weight="bold" font-size="5px" fill="currentColor" y="115" x="0">Created by Laymik</text><text font-family="'Helvetica Neue', Helvetica, Arial-Unicode, Arial, Sans-serif" font-weight="bold" font-size="5px" fill="currentColor" y="120" x="0">from the Noun Project</text></svg>