<svg xml:space="preserve" viewBox="3.5000000000000004 2.5 96.25 95.5" y="0px" x="0px" version="1.1" xmlns:xlink="http://www.w3.org/1999/xlink" xmlns="http://www.w3.org/2000/svg" style="max-height: 500px" width="96.25" height="95.5"><path fill="white" d="M94.22,26.61l-7.11-7.11c-1.45-1.45-3.41-2.28-5.46-2.34l-8.22-8.22c-1.94-1.93-4.56-3.02-7.29-3.02h-8.03l7.2,2.85  c1.75,0.69,3.29,1.85,4.43,3.36l3.81,5.02h-8.47l1.45,2.14c1.47,2.18,3.93,3.49,6.57,3.49h0.42l-2.93,4.8l0.03-0.03  c0.5,0.42,1.02,0.82,1.54,1.21l-0.59,0.81c-0.5-0.38-1-0.77-1.48-1.17l-4.89,8.02c0.3,0.29,0.59,0.59,0.9,0.87l-0.68,0.74  c-0.39-0.36-0.76-0.73-1.14-1.11h-5.69v1.79h-1v-1.79H45.45v1.2h-1v-1.2H26.67c-4.2,0-8.23,1.71-11.15,4.73l-0.13,0.14l-9.37-4.74  v2.51c0,1.48,0.44,2.91,1.28,4.13l3.21,4.67l2.36,11.53c0.38,0.26,0.76,0.52,1.15,0.76l-0.53,0.85c-0.22-0.14-0.43-0.29-0.65-0.44  l-2.6,3.9l1.37,10.11h1.41v1h-1.27l2.51,18.43h3.84V76.07h-1.08v-1h2l6.85-5.36l0.62,0.78l-1.11,0.88l4.16,23.12h3.84l-1.15-18.41  l12.02-10.19h-0.3v-1h0.5v-1.77h1v1.77h12.14v-1.18h1v30.78h3.76L64.27,75c0,0,6.37-6.69,8.1-9.25c2.36-3.49,4.17-6.51,5.57-9.54  h-0.83v-1h1.27c1.25-2.88,2.15-5.82,2.77-9.19c-0.53-0.11-1.05-0.22-1.58-0.35l0.25-0.97c0.5,0.13,1.01,0.23,1.52,0.33l2.02-11h3.51  l3.52,7.03h2.81v-7.05c1.58-0.13,2.82-1.46,2.82-3.07C96.02,29.32,95.37,27.76,94.22,26.61z M16.02,76.07h-2v-1h2V76.07z   M16.16,62.96c-0.6-0.29-1.21-0.61-1.8-0.94l0.5-0.87c0.57,0.32,1.15,0.63,1.74,0.91L16.16,62.96z M18.98,64.15  c-0.64-0.23-1.28-0.49-1.89-0.76l0.4-0.91c0.6,0.26,1.21,0.5,1.82,0.73L18.98,64.15z M21.9,65.03c-0.66-0.16-1.32-0.35-1.96-0.56  l0.31-0.95c0.61,0.2,1.25,0.38,1.89,0.54L21.9,65.03z M24.89,65.61c-0.67-0.09-1.34-0.21-2-0.35l0.2-0.98  c0.64,0.13,1.29,0.25,1.94,0.34L24.89,65.61z M31.61,36.96h1v2h-1V36.96z M31.61,39.96h1v2h-1V39.96z M31.61,42.96h1v2h-1V42.96z   M31.61,45.96h1v2h-1V45.96z M31.61,48.96h1v2h-1V48.96z M31.61,51.96h1v2h-1V51.96z M31.61,57.96h1v2h-1V57.96z M31.61,60.96h1v2  h-1V60.96z M25.9,65.73l0.1-0.99c0.65,0.06,1.31,0.11,1.97,0.13l-0.04,1C27.26,65.85,26.57,65.8,25.9,65.73z M27.28,69.87  l-0.63-0.79l1.57-1.24l0.62,0.78L27.28,69.87z M28.95,64.89h2v1h-1.99L28.95,64.89z M29.62,68L29,67.22l1.57-1.25l0.62,0.79  L29.62,68z M33.95,65.89h-1.67l-0.31,0.24l-0.62-0.78l0.26-0.2v-1.19h1v0.93h1.34V65.89z M34.11,56.21h-1.5v0.75h-1v-2h1v0.25h1.5  V56.21z M36.95,65.89h-2v-1h2V65.89z M37.11,56.21h-2v-1h2V56.21z M39.95,65.89h-2v-1h2V65.89z M40.11,56.21h-2v-1h2V56.21z   M42.95,65.89h-2v-1h2V65.89z M43.11,56.21h-2v-1h2V56.21z M44.45,39.12h1v2h-1V39.12z M44.45,42.12h1v2h-1V42.12z M44.45,45.12h1v2  h-1V45.12z M44.45,48.12h1v2h-1V48.12z M44.45,51.12h1v2h-1V51.12z M45.45,62.12h-1v-2h1V62.12z M45.45,59.12h-1v-2h1V59.12z   M46.11,56.21h-2v-1h0.34v-1.09h1v1.09h0.66V56.21z M49.11,56.21h-2v-1h2V56.21z M52.11,56.21h-2v-1h2V56.21z M55.11,56.21h-2v-1h2  V56.21z M58.59,62.71h-1v-2h1V62.71z M58.59,59.71h-1v-2h1V59.71z M58.59,56.71h-1v-0.5h-1.48v-1h1.48v-0.5h1V56.71z M58.59,53.71  h-1v-2h1V53.71z M58.59,50.71h-1v-2h1V50.71z M58.59,47.71h-1v-2h1V47.71z M58.59,44.71h-1v-2h1V44.71z M58.59,41.71h-1v-2h1V41.71z   M60.96,76.07h-2v-1h2V76.07z M61.11,56.21h-2v-1h2V56.21z M63.96,76.07h-2v-1h2V76.07z M64.11,56.21h-2v-1h2V56.21z M75.47,30.9  c0.57,0.32,1.15,0.62,1.75,0.91l-0.44,0.9c-0.61-0.3-1.21-0.61-1.8-0.94L75.47,30.9z M72.96,29.33c0.55,0.38,1.1,0.73,1.66,1.07  l-0.52,0.86c-0.58-0.35-1.15-0.72-1.7-1.1L72.96,29.33z M67.11,56.21h-2v-1h2V56.21z M66.18,38.7l0.65-0.75  c0.5,0.43,1.01,0.84,1.53,1.23l-0.6,0.8C67.22,39.57,66.69,39.15,66.18,38.7z M70.11,56.21h-2v-1h2V56.21z M70.27,41.71  c-0.58-0.36-1.14-0.74-1.69-1.13l0.58-0.81c0.53,0.38,1.08,0.74,1.63,1.09L70.27,41.71z M73.11,56.21h-2v-1h2V56.21z M72.92,43.19  c-0.6-0.3-1.2-0.62-1.79-0.96l0.51-0.87c0.56,0.33,1.14,0.65,1.73,0.94L72.92,43.19z M74.26,42.73c0.59,0.27,1.2,0.53,1.81,0.77  l-0.36,0.93c-0.64-0.25-1.26-0.51-1.87-0.8L74.26,42.73z M76.11,56.21h-2v-1h2V56.21z M78.59,45.4c-0.65-0.18-1.3-0.39-1.93-0.62  l0.33-0.94c0.62,0.22,1.24,0.42,1.88,0.6L78.59,45.4z M79.58,33.9c-0.63-0.23-1.26-0.49-1.88-0.77l0.41-0.91  c0.6,0.27,1.21,0.52,1.82,0.75L79.58,33.9z M82.48,34.83c-0.65-0.17-1.3-0.37-1.94-0.59l0.32-0.94c0.62,0.21,1.25,0.4,1.88,0.57  L82.48,34.83z"/><text font-family="'Helvetica Neue', Helvetica, Arial-Unicode, Arial, Sans-serif" font-weight="bold" font-size="5px" fill="#000000" y="115" x="0">Created by Laymik</text><text font-family="'Helvetica Neue', Helvetica, Arial-Unicode, Arial, Sans-serif" font-weight="bold" font-size="5px" fill="#000000" y="120" x="0">from the Noun Project</text></svg>